<?xml version="1.0" encoding="UTF-8" standalone="no"?>
<!DOCTYPE svg PUBLIC "-//W3C//DTD SVG 1.1//EN"
 "http://www.w3.org/Graphics/SVG/1.1/DTD/svg11.dtd">
<!-- Generated by graphviz version 2.26.3 (20100126.1600)
 -->
<!-- Title: G Pages: 1 -->
<svg width="11535pt" height="318pt"
 viewBox="0.00 0.00 11535.00 318.00" xmlns="http://www.w3.org/2000/svg" xmlns:xlink="http://www.w3.org/1999/xlink">
<g id="graph1" class="graph" transform="scale(1 1) rotate(0) translate(4 314)">
<title>G</title>
<polygon fill="white" stroke="white" points="-4,5 -4,-314 11532,-314 11532,5 -4,5"/>
<!-- s4 -->
<g id="node1" class="node"><title>s4</title>
<polygon fill="none" stroke="black" points="1806,-218 1046,-218 1046,-182 1806,-182 1806,-218"/>
<text text-anchor="middle" x="1426" y="-196.4" font-family="Times Roman,serif" font-size="14.00">s4 = C[l6 = LambdaExpr : 0&#45;1&#45;1 : [[0,0],[&lt;0,0&gt;,&lt;0,0&gt;]]] = {(LambdaExpr@0&#45;1&#45;1,[[0,0],[&lt;0,0&gt;,&lt;0,0&gt;]])}</text>
</g>
<!-- s5 -->
<g id="node13" class="node"><title>s5</title>
<polygon fill="none" stroke="black" points="1790,-128 1062,-128 1062,-92 1790,-92 1790,-128"/>
<text text-anchor="middle" x="1426" y="-106.4" font-family="Times Roman,serif" font-size="14.00">s5 = c[l7 = Variable : 0&#45;1&#45;0 : [[0,0],[&lt;0,0&gt;,&lt;0,0&gt;]]] = {(LambdaExpr@0&#45;1&#45;1,[[0,0],[&lt;0,0&gt;,&lt;0,0&gt;]])}</text>
</g>
<!-- s4&#45;&gt;s5 -->
<g id="edge12" class="edge"><title>s4&#45;&gt;s5</title>
<path fill="none" stroke="black" d="M1426,-181.787C1426,-169.344 1426,-152.605 1426,-138.421"/>
<polygon fill="black" stroke="black" points="1429.5,-138.186 1426,-128.186 1422.5,-138.186 1429.5,-138.186"/>
<text text-anchor="middle" x="1458.5" y="-151.4" font-family="Times Roman,serif" font-size="14.00">s4 sub s5</text>
</g>
<!-- s17 -->
<g id="node2" class="node"><title>s17</title>
<polygon fill="none" stroke="black" points="4407,-218 3637,-218 3637,-182 4407,-182 4407,-218"/>
<text text-anchor="middle" x="4022" y="-196.4" font-family="Times Roman,serif" font-size="14.00">s17 = C[l6 = LambdaExpr : 0&#45;1&#45;1 : [[1,0],[&lt;0,0&gt;,&lt;0,0&gt;]]] = {(LambdaExpr@0&#45;1&#45;1,[[0,0],[&lt;0,0&gt;,&lt;0,0&gt;]])}</text>
</g>
<!-- s15 -->
<g id="node14" class="node"><title>s15</title>
<polygon fill="none" stroke="black" points="4390,-128 3654,-128 3654,-92 4390,-92 4390,-128"/>
<text text-anchor="middle" x="4022" y="-106.4" font-family="Times Roman,serif" font-size="14.00">s15 = c[l7 = Variable : 0&#45;1&#45;0 : [[1,0],[&lt;0,0&gt;,&lt;0,0&gt;]]] = {(LambdaExpr@0&#45;1&#45;1,[[0,0],[&lt;0,0&gt;,&lt;0,0&gt;]])}</text>
</g>
<!-- s17&#45;&gt;s15 -->
<g id="edge26" class="edge"><title>s17&#45;&gt;s15</title>
<path fill="none" stroke="black" d="M4022,-181.787C4022,-169.344 4022,-152.605 4022,-138.421"/>
<polygon fill="black" stroke="black" points="4025.5,-138.186 4022,-128.186 4018.5,-138.186 4025.5,-138.186"/>
<text text-anchor="middle" x="4063.5" y="-151.4" font-family="Times Roman,serif" font-size="14.00">s17 sub s15</text>
</g>
<!-- s20 -->
<g id="node3" class="node"><title>s20</title>
<polygon fill="none" stroke="black" points="7003,-218 6233,-218 6233,-182 7003,-182 7003,-218"/>
<text text-anchor="middle" x="6618" y="-196.4" font-family="Times Roman,serif" font-size="14.00">s20 = C[l6 = LambdaExpr : 0&#45;1&#45;1 : [[2,0],[&lt;0,0&gt;,&lt;0,0&gt;]]] = {(LambdaExpr@0&#45;1&#45;1,[[0,0],[&lt;0,0&gt;,&lt;0,0&gt;]])}</text>
</g>
<!-- s18 -->
<g id="node15" class="node"><title>s18</title>
<polygon fill="none" stroke="black" points="6986,-128 6250,-128 6250,-92 6986,-92 6986,-128"/>
<text text-anchor="middle" x="6618" y="-106.4" font-family="Times Roman,serif" font-size="14.00">s18 = c[l7 = Variable : 0&#45;1&#45;0 : [[2,0],[&lt;0,0&gt;,&lt;0,0&gt;]]] = {(LambdaExpr@0&#45;1&#45;1,[[0,0],[&lt;0,0&gt;,&lt;0,0&gt;]])}</text>
</g>
<!-- s20&#45;&gt;s18 -->
<g id="edge32" class="edge"><title>s20&#45;&gt;s18</title>
<path fill="none" stroke="black" d="M6618,-181.787C6618,-169.344 6618,-152.605 6618,-138.421"/>
<polygon fill="black" stroke="black" points="6621.5,-138.186 6618,-128.186 6614.5,-138.186 6621.5,-138.186"/>
<text text-anchor="middle" x="6659.5" y="-151.4" font-family="Times Roman,serif" font-size="14.00">s20 sub s18</text>
</g>
<!-- s6 -->
<g id="node4" class="node"><title>s6</title>
<ellipse fill="none" stroke="black" cx="517" cy="-19" rx="516.895" ry="18.3848"/>
<text text-anchor="middle" x="517" y="-15.4" font-family="Times Roman,serif" font-size="14.00">s6 = C[l8 = Variable : 0&#45;1&#45;0 : [[0,0],[&lt;0,0&gt;,&lt;0,0&gt;]]] = {(LambdaExpr@0&#45;1&#45;1,[[0,0],[&lt;0,0&gt;,&lt;0,0&gt;]])}</text>
</g>
<!-- s16 -->
<g id="node5" class="node"><title>s16</title>
<ellipse fill="none" stroke="black" cx="3107" cy="-19" rx="522.759" ry="18.3848"/>
<text text-anchor="middle" x="3107" y="-15.4" font-family="Times Roman,serif" font-size="14.00">s16 = C[l8 = Variable : 0&#45;1&#45;0 : [[1,0],[&lt;0,0&gt;,&lt;0,0&gt;]]] = {(LambdaExpr@0&#45;1&#45;1,[[0,0],[&lt;0,0&gt;,&lt;0,0&gt;]])}</text>
</g>
<!-- s19 -->
<g id="node6" class="node"><title>s19</title>
<ellipse fill="none" stroke="black" cx="5703" cy="-19" rx="522.759" ry="18.3848"/>
<text text-anchor="middle" x="5703" y="-15.4" font-family="Times Roman,serif" font-size="14.00">s19 = C[l8 = Variable : 0&#45;1&#45;0 : [[2,0],[&lt;0,0&gt;,&lt;0,0&gt;]]] = {(LambdaExpr@0&#45;1&#45;1,[[0,0],[&lt;0,0&gt;,&lt;0,0&gt;]])}</text>
</g>
<!-- s14 -->
<g id="node7" class="node"><title>s14</title>
<polygon fill="none" stroke="black" points="1800,-37 1052,-37 1052,-1 1800,-1 1800,-37"/>
<text text-anchor="middle" x="1426" y="-15.4" font-family="Times Roman,serif" font-size="14.00">s14 = C[l12 = Variable : 0&#45;2&#45;1 : [[0,0],[&lt;0,0&gt;,&lt;0,0&gt;]]] = {(LambdaExpr@0&#45;1&#45;1,[[0,0],[&lt;0,0&gt;,&lt;0,0&gt;]])}</text>
</g>
<!-- s10 -->
<g id="node8" class="node"><title>s10</title>
<polygon fill="none" stroke="black" points="4396,-37 3648,-37 3648,-1 4396,-1 4396,-37"/>
<text text-anchor="middle" x="4022" y="-15.4" font-family="Times Roman,serif" font-size="14.00">s10 = C[l12 = Variable : 0&#45;2&#45;1 : [[1,0],[&lt;0,0&gt;,&lt;0,0&gt;]]] = {(LambdaExpr@0&#45;1&#45;1,[[0,0],[&lt;0,0&gt;,&lt;0,0&gt;]])}</text>
</g>
<!-- s12 -->
<g id="node9" class="node"><title>s12</title>
<polygon fill="none" stroke="black" points="6992,-37 6244,-37 6244,-1 6992,-1 6992,-37"/>
<text text-anchor="middle" x="6618" y="-15.4" font-family="Times Roman,serif" font-size="14.00">s12 = C[l12 = Variable : 0&#45;2&#45;1 : [[2,0],[&lt;0,0&gt;,&lt;0,0&gt;]]] = {(LambdaExpr@0&#45;1&#45;1,[[0,0],[&lt;0,0&gt;,&lt;0,0&gt;]])}</text>
</g>
<!-- s28 -->
<g id="node10" class="node"><title>s28</title>
<polygon fill="none" stroke="black" points="2566,-37 1818,-37 1818,-1 2566,-1 2566,-37"/>
<text text-anchor="middle" x="2192" y="-15.4" font-family="Times Roman,serif" font-size="14.00">s28 = C[l14 = Variable : 0&#45;3&#45;1 : [[0,0],[&lt;0,0&gt;,&lt;0,0&gt;]]] = {(LambdaExpr@0&#45;1&#45;1,[[0,0],[&lt;0,0&gt;,&lt;0,0&gt;]])}</text>
</g>
<!-- s24 -->
<g id="node11" class="node"><title>s24</title>
<polygon fill="none" stroke="black" points="5162,-37 4414,-37 4414,-1 5162,-1 5162,-37"/>
<text text-anchor="middle" x="4788" y="-15.4" font-family="Times Roman,serif" font-size="14.00">s24 = C[l14 = Variable : 0&#45;3&#45;1 : [[1,0],[&lt;0,0&gt;,&lt;0,0&gt;]]] = {(LambdaExpr@0&#45;1&#45;1,[[0,0],[&lt;0,0&gt;,&lt;0,0&gt;]])}</text>
</g>
<!-- s26 -->
<g id="node12" class="node"><title>s26</title>
<polygon fill="none" stroke="black" points="7758,-37 7010,-37 7010,-1 7758,-1 7758,-37"/>
<text text-anchor="middle" x="7384" y="-15.4" font-family="Times Roman,serif" font-size="14.00">s26 = C[l14 = Variable : 0&#45;3&#45;1 : [[2,0],[&lt;0,0&gt;,&lt;0,0&gt;]]] = {(LambdaExpr@0&#45;1&#45;1,[[0,0],[&lt;0,0&gt;,&lt;0,0&gt;]])}</text>
</g>
<!-- s5&#45;&gt;s6 -->
<g id="edge10" class="edge"><title>s5&#45;&gt;s6</title>
<path fill="none" stroke="black" d="M1246.14,-91.9941C1088.53,-76.2159 860.426,-53.3803 701.463,-37.4666"/>
<polygon fill="black" stroke="black" points="701.393,-33.9422 691.094,-36.4286 700.696,-40.9074 701.393,-33.9422"/>
<text text-anchor="middle" x="1085.5" y="-61.4" font-family="Times Roman,serif" font-size="14.00">s5 sub s6</text>
</g>
<!-- s5&#45;&gt;s14 -->
<g id="edge34" class="edge"><title>s5&#45;&gt;s14</title>
<path fill="none" stroke="black" d="M1426,-91.5848C1426,-78.9209 1426,-61.8558 1426,-47.4541"/>
<polygon fill="black" stroke="black" points="1429.5,-47.0772 1426,-37.0773 1422.5,-47.0773 1429.5,-47.0772"/>
<text text-anchor="middle" x="1463" y="-61.4" font-family="Times Roman,serif" font-size="14.00">s5 sub s14</text>
</g>
<!-- s5&#45;&gt;s28 -->
<g id="edge58" class="edge"><title>s5&#45;&gt;s28</title>
<path fill="none" stroke="black" d="M1577.79,-91.967C1708.4,-76.451 1896.33,-54.1252 2029.86,-38.2625"/>
<polygon fill="black" stroke="black" points="2030.66,-41.6915 2040.18,-37.0362 2029.84,-34.7404 2030.66,-41.6915"/>
<text text-anchor="middle" x="1915" y="-61.4" font-family="Times Roman,serif" font-size="14.00">s5 sub s28</text>
</g>
<!-- s15&#45;&gt;s16 -->
<g id="edge24" class="edge"><title>s15&#45;&gt;s16</title>
<path fill="none" stroke="black" d="M3840.95,-91.9941C3682.27,-76.2128 3452.6,-53.3715 3292.59,-37.4573"/>
<polygon fill="black" stroke="black" points="3292.93,-33.9739 3282.63,-36.467 3292.23,-40.9396 3292.93,-33.9739"/>
<text text-anchor="middle" x="3688.5" y="-61.4" font-family="Times Roman,serif" font-size="14.00">s15 sub s16</text>
</g>
<!-- s15&#45;&gt;s10 -->
<g id="edge22" class="edge"><title>s15&#45;&gt;s10</title>
<path fill="none" stroke="black" d="M4022,-91.5848C4022,-78.9209 4022,-61.8558 4022,-47.4541"/>
<polygon fill="black" stroke="black" points="4025.5,-47.0772 4022,-37.0773 4018.5,-47.0773 4025.5,-47.0772"/>
<text text-anchor="middle" x="4063.5" y="-61.4" font-family="Times Roman,serif" font-size="14.00">s15 sub s10</text>
</g>
<!-- s15&#45;&gt;s24 -->
<g id="edge54" class="edge"><title>s15&#45;&gt;s24</title>
<path fill="none" stroke="black" d="M4173.79,-91.967C4304.4,-76.451 4492.33,-54.1252 4625.86,-38.2625"/>
<polygon fill="black" stroke="black" points="4626.66,-41.6915 4636.18,-37.0362 4625.84,-34.7404 4626.66,-41.6915"/>
<text text-anchor="middle" x="4515.5" y="-61.4" font-family="Times Roman,serif" font-size="14.00">s15 sub s24</text>
</g>
<!-- s18&#45;&gt;s19 -->
<g id="edge30" class="edge"><title>s18&#45;&gt;s19</title>
<path fill="none" stroke="black" d="M6436.95,-91.9941C6278.27,-76.2128 6048.6,-53.3715 5888.59,-37.4573"/>
<polygon fill="black" stroke="black" points="5888.93,-33.9739 5878.63,-36.467 5888.23,-40.9396 5888.93,-33.9739"/>
<text text-anchor="middle" x="6284.5" y="-61.4" font-family="Times Roman,serif" font-size="14.00">s18 sub s19</text>
</g>
<!-- s18&#45;&gt;s12 -->
<g id="edge28" class="edge"><title>s18&#45;&gt;s12</title>
<path fill="none" stroke="black" d="M6618,-91.5848C6618,-78.9209 6618,-61.8558 6618,-47.4541"/>
<polygon fill="black" stroke="black" points="6621.5,-47.0772 6618,-37.0773 6614.5,-47.0773 6621.5,-47.0772"/>
<text text-anchor="middle" x="6659.5" y="-61.4" font-family="Times Roman,serif" font-size="14.00">s18 sub s12</text>
</g>
<!-- s18&#45;&gt;s26 -->
<g id="edge56" class="edge"><title>s18&#45;&gt;s26</title>
<path fill="none" stroke="black" d="M6769.79,-91.967C6900.4,-76.451 7088.33,-54.1252 7221.86,-38.2625"/>
<polygon fill="black" stroke="black" points="7222.66,-41.6915 7232.18,-37.0362 7221.84,-34.7404 7222.66,-41.6915"/>
<text text-anchor="middle" x="7111.5" y="-61.4" font-family="Times Roman,serif" font-size="14.00">s18 sub s26</text>
</g>
<!-- s1 -->
<g id="node16" class="node"><title>s1</title>
<polygon fill="none" stroke="black" points="8339,-218 7879,-218 7879,-182 8339,-182 8339,-218"/>
<text text-anchor="middle" x="8109" y="-196.4" font-family="Times Roman,serif" font-size="14.00">s1 = D[l3 = Literal : 0&#45;0&#45;1 : [[0,0],[&lt;0,0&gt;,&lt;0,0&gt;]]] = {AP(12)}</text>
</g>
<!-- s2 -->
<g id="node26" class="node"><title>s2</title>
<polygon fill="none" stroke="black" points="8343,-128 7875,-128 7875,-92 8343,-92 8343,-128"/>
<text text-anchor="middle" x="8109" y="-106.4" font-family="Times Roman,serif" font-size="14.00">s2 = d[l4 = Variable : 0&#45;0&#45;0 : [[0,0],[&lt;0,0&gt;,&lt;0,0&gt;]]] = {AP(12)}</text>
</g>
<!-- s1&#45;&gt;s2 -->
<g id="edge6" class="edge"><title>s1&#45;&gt;s2</title>
<path fill="none" stroke="black" d="M8109,-181.787C8109,-169.344 8109,-152.605 8109,-138.421"/>
<polygon fill="black" stroke="black" points="8112.5,-138.186 8109,-128.186 8105.5,-138.186 8112.5,-138.186"/>
<text text-anchor="middle" x="8141.5" y="-151.4" font-family="Times Roman,serif" font-size="14.00">s1 sub s2</text>
</g>
<!-- s3 -->
<g id="node17" class="node"><title>s3</title>
<ellipse fill="none" stroke="black" cx="8109" cy="-19" rx="333.047" ry="18.3848"/>
<text text-anchor="middle" x="8109" y="-15.4" font-family="Times Roman,serif" font-size="14.00">s3 = D[l5 = Variable : 0&#45;0&#45;0 : [[0,0],[&lt;0,0&gt;,&lt;0,0&gt;]]] = {AP(12)}</text>
</g>
<!-- s8 -->
<g id="node18" class="node"><title>s8</title>
<ellipse fill="none" stroke="black" cx="9087" cy="-19" rx="389.116" ry="18.3848"/>
<text text-anchor="middle" x="9087" y="-15.4" font-family="Times Roman,serif" font-size="14.00">s8 = D[l10 = Variable : 0&#45;1&#45;1&#45;2&#45;0&#45;1&#45;1&#45;0 : [[0,1],[&lt;0,0&gt;,&lt;0,0&gt;]]] = {AP(14)}</text>
</g>
<!-- s22 -->
<g id="node19" class="node"><title>s22</title>
<ellipse fill="none" stroke="black" cx="10570" cy="-19" rx="395.98" ry="18.3848"/>
<text text-anchor="middle" x="10570" y="-15.4" font-family="Times Roman,serif" font-size="14.00">s22 = D[l10 = Variable : 0&#45;1&#45;1&#45;2&#45;0&#45;1&#45;1&#45;0 : [[0,2],[&lt;0,0&gt;,&lt;0,0&gt;]]] = {AP(16)}</text>
</g>
<!-- s13 -->
<g id="node20" class="node"><title>s13</title>
<polygon fill="none" stroke="black" points="8835,-218 8357,-218 8357,-182 8835,-182 8835,-218"/>
<text text-anchor="middle" x="8596" y="-196.4" font-family="Times Roman,serif" font-size="14.00">s13 = D[l11 = Literal : 0&#45;2&#45;2 : [[0,0],[&lt;0,0&gt;,&lt;0,0&gt;]]] = {AP(14)}</text>
</g>
<!-- s7 -->
<g id="node27" class="node"><title>s7</title>
<polygon fill="none" stroke="black" points="9356,-128 8818,-128 8818,-92 9356,-92 9356,-128"/>
<text text-anchor="middle" x="9087" y="-106.4" font-family="Times Roman,serif" font-size="14.00">s7 = d[l9 = Variable : 0&#45;1&#45;1&#45;2&#45;0&#45;1&#45;1&#45;0 : [[0,1],[&lt;0,0&gt;,&lt;0,0&gt;]]] = {AP(14)}</text>
</g>
<!-- s13&#45;&gt;s7 -->
<g id="edge20" class="edge"><title>s13&#45;&gt;s7</title>
<path fill="none" stroke="black" d="M8599.43,-181.869C8602.76,-169.628 8609.12,-154.252 8621,-146 8638.34,-133.952 8718.63,-125.749 8807.81,-120.257"/>
<polygon fill="black" stroke="black" points="8808.11,-123.746 8817.88,-119.651 8807.68,-116.759 8808.11,-123.746"/>
<text text-anchor="middle" x="8852" y="-151.4" font-family="Times Roman,serif" font-size="14.00">(LambdaExpr@0&#45;1&#45;1,[[0,0],[&lt;0,0&gt;,&lt;0,0&gt;]]) in s14 =&gt; s13 sub s7</text>
</g>
<!-- s9 -->
<g id="node21" class="node"><title>s9</title>
<polygon fill="none" stroke="black" points="9321,-218 8853,-218 8853,-182 9321,-182 9321,-218"/>
<text text-anchor="middle" x="9087" y="-196.4" font-family="Times Roman,serif" font-size="14.00">s9 = D[l11 = Literal : 0&#45;2&#45;2 : [[1,0],[&lt;0,0&gt;,&lt;0,0&gt;]]] = {AP(14)}</text>
</g>
<!-- s9&#45;&gt;s7 -->
<g id="edge16" class="edge"><title>s9&#45;&gt;s7</title>
<path fill="none" stroke="black" d="M9087,-181.787C9087,-169.344 9087,-152.605 9087,-138.421"/>
<polygon fill="black" stroke="black" points="9090.5,-138.186 9087,-128.186 9083.5,-138.186 9090.5,-138.186"/>
<text text-anchor="middle" x="9313.5" y="-151.4" font-family="Times Roman,serif" font-size="14.00">(LambdaExpr@0&#45;1&#45;1,[[0,0],[&lt;0,0&gt;,&lt;0,0&gt;]]) in s10 =&gt; s9 sub s7</text>
</g>
<!-- s11 -->
<g id="node22" class="node"><title>s11</title>
<polygon fill="none" stroke="black" points="9817,-218 9339,-218 9339,-182 9817,-182 9817,-218"/>
<text text-anchor="middle" x="9578" y="-196.4" font-family="Times Roman,serif" font-size="14.00">s11 = D[l11 = Literal : 0&#45;2&#45;2 : [[2,0],[&lt;0,0&gt;,&lt;0,0&gt;]]] = {AP(14)}</text>
</g>
<!-- s11&#45;&gt;s7 -->
<g id="edge18" class="edge"><title>s11&#45;&gt;s7</title>
<path fill="none" stroke="black" d="M9571.67,-181.991C9566.32,-169.642 9557.37,-154.081 9544,-146 9526.7,-135.542 9451.15,-127.714 9366.31,-122.077"/>
<polygon fill="black" stroke="black" points="9366.39,-118.575 9356.19,-121.417 9365.94,-125.56 9366.39,-118.575"/>
<text text-anchor="middle" x="9792" y="-151.4" font-family="Times Roman,serif" font-size="14.00">(LambdaExpr@0&#45;1&#45;1,[[0,0],[&lt;0,0&gt;,&lt;0,0&gt;]]) in s12 =&gt; s11 sub s7</text>
</g>
<!-- s27 -->
<g id="node23" class="node"><title>s27</title>
<polygon fill="none" stroke="black" points="10313,-218 9835,-218 9835,-182 10313,-182 10313,-218"/>
<text text-anchor="middle" x="10074" y="-196.4" font-family="Times Roman,serif" font-size="14.00">s27 = D[l13 = Literal : 0&#45;3&#45;2 : [[0,0],[&lt;0,0&gt;,&lt;0,0&gt;]]] = {AP(16)}</text>
</g>
<!-- s21 -->
<g id="node28" class="node"><title>s21</title>
<polygon fill="none" stroke="black" points="10844,-128 10296,-128 10296,-92 10844,-92 10844,-128"/>
<text text-anchor="middle" x="10570" y="-106.4" font-family="Times Roman,serif" font-size="14.00">s21 = d[l9 = Variable : 0&#45;1&#45;1&#45;2&#45;0&#45;1&#45;1&#45;0 : [[0,2],[&lt;0,0&gt;,&lt;0,0&gt;]]] = {AP(16)}</text>
</g>
<!-- s27&#45;&gt;s21 -->
<g id="edge52" class="edge"><title>s27&#45;&gt;s21</title>
<path fill="none" stroke="black" d="M10076.1,-181.951C10078.5,-169.749 10083.7,-154.385 10095,-146 10112.3,-133.143 10194.6,-124.784 10285.9,-119.394"/>
<polygon fill="black" stroke="black" points="10286.2,-122.886 10295.9,-118.816 10285.8,-115.898 10286.2,-122.886"/>
<text text-anchor="middle" x="10330.5" y="-151.4" font-family="Times Roman,serif" font-size="14.00">(LambdaExpr@0&#45;1&#45;1,[[0,0],[&lt;0,0&gt;,&lt;0,0&gt;]]) in s28 =&gt; s27 sub s21</text>
</g>
<!-- s23 -->
<g id="node24" class="node"><title>s23</title>
<polygon fill="none" stroke="black" points="10809,-218 10331,-218 10331,-182 10809,-182 10809,-218"/>
<text text-anchor="middle" x="10570" y="-196.4" font-family="Times Roman,serif" font-size="14.00">s23 = D[l13 = Literal : 0&#45;3&#45;2 : [[1,0],[&lt;0,0&gt;,&lt;0,0&gt;]]] = {AP(16)}</text>
</g>
<!-- s23&#45;&gt;s21 -->
<g id="edge48" class="edge"><title>s23&#45;&gt;s21</title>
<path fill="none" stroke="black" d="M10570,-181.787C10570,-169.344 10570,-152.605 10570,-138.421"/>
<polygon fill="black" stroke="black" points="10573.5,-138.186 10570,-128.186 10566.5,-138.186 10573.5,-138.186"/>
<text text-anchor="middle" x="10805.5" y="-151.4" font-family="Times Roman,serif" font-size="14.00">(LambdaExpr@0&#45;1&#45;1,[[0,0],[&lt;0,0&gt;,&lt;0,0&gt;]]) in s24 =&gt; s23 sub s21</text>
</g>
<!-- s25 -->
<g id="node25" class="node"><title>s25</title>
<polygon fill="none" stroke="black" points="11305,-218 10827,-218 10827,-182 11305,-182 11305,-218"/>
<text text-anchor="middle" x="11066" y="-196.4" font-family="Times Roman,serif" font-size="14.00">s25 = D[l13 = Literal : 0&#45;3&#45;2 : [[2,0],[&lt;0,0&gt;,&lt;0,0&gt;]]] = {AP(16)}</text>
</g>
<!-- s25&#45;&gt;s21 -->
<g id="edge50" class="edge"><title>s25&#45;&gt;s21</title>
<path fill="none" stroke="black" d="M11063.3,-181.906C11060.4,-169.683 11054.6,-154.313 11043,-146 11025.6,-133.54 10944.5,-125.265 10854.2,-119.83"/>
<polygon fill="black" stroke="black" points="10854.2,-116.324 10844,-119.23 10853.8,-123.311 10854.2,-116.324"/>
<text text-anchor="middle" x="11291.5" y="-151.4" font-family="Times Roman,serif" font-size="14.00">(LambdaExpr@0&#45;1&#45;1,[[0,0],[&lt;0,0&gt;,&lt;0,0&gt;]]) in s26 =&gt; s25 sub s21</text>
</g>
<!-- s2&#45;&gt;s3 -->
<g id="edge4" class="edge"><title>s2&#45;&gt;s3</title>
<path fill="none" stroke="black" d="M8109,-91.5848C8109,-79.0864 8109,-62.3012 8109,-48.0202"/>
<polygon fill="black" stroke="black" points="8112.5,-47.7001 8109,-37.7002 8105.5,-47.7002 8112.5,-47.7001"/>
<text text-anchor="middle" x="8141.5" y="-61.4" font-family="Times Roman,serif" font-size="14.00">s2 sub s3</text>
</g>
<!-- s7&#45;&gt;s8 -->
<g id="edge14" class="edge"><title>s7&#45;&gt;s8</title>
<path fill="none" stroke="black" d="M9087,-91.5848C9087,-79.0864 9087,-62.3012 9087,-48.0202"/>
<polygon fill="black" stroke="black" points="9090.5,-47.7001 9087,-37.7002 9083.5,-47.7002 9090.5,-47.7001"/>
<text text-anchor="middle" x="9119.5" y="-61.4" font-family="Times Roman,serif" font-size="14.00">s7 sub s8</text>
</g>
<!-- s21&#45;&gt;s22 -->
<g id="edge46" class="edge"><title>s21&#45;&gt;s22</title>
<path fill="none" stroke="black" d="M10570,-91.5848C10570,-79.0864 10570,-62.3012 10570,-48.0202"/>
<polygon fill="black" stroke="black" points="10573.5,-47.7001 10570,-37.7002 10566.5,-47.7002 10573.5,-47.7001"/>
<text text-anchor="middle" x="10611.5" y="-61.4" font-family="Times Roman,serif" font-size="14.00">s21 sub s22</text>
</g>
<!-- e0x18fd110 -->
<g id="node29" class="node"><title>e0x18fd110</title>
<ellipse fill="none" stroke="black" cx="8109" cy="-291" rx="44.7575" ry="18.3848"/>
<text text-anchor="middle" x="8109" y="-287.4" font-family="Times Roman,serif" font-size="14.00">AP(12)</text>
</g>
<!-- e0x18fd110&#45;&gt;s1 -->
<g id="edge2" class="edge"><title>e0x18fd110&#45;&gt;s1</title>
<path fill="none" stroke="black" d="M8109,-272.145C8109,-259.533 8109,-242.705 8109,-228.474"/>
<polygon fill="black" stroke="black" points="8112.5,-228.21 8109,-218.21 8105.5,-228.21 8112.5,-228.21"/>
<text text-anchor="middle" x="8151.5" y="-241.4" font-family="Times Roman,serif" font-size="14.00">AP(12) in s1</text>
</g>
<!-- e0x18ef9b0 -->
<g id="node33" class="node"><title>e0x18ef9b0</title>
<ellipse fill="none" stroke="black" cx="1426" cy="-291" rx="229.81" ry="18.3848"/>
<text text-anchor="middle" x="1426" y="-287.4" font-family="Times Roman,serif" font-size="14.00">(LambdaExpr@0&#45;1&#45;1,[[0,0],[&lt;0,0&gt;,&lt;0,0&gt;]])</text>
</g>
<!-- e0x18ef9b0&#45;&gt;s4 -->
<g id="edge8" class="edge"><title>e0x18ef9b0&#45;&gt;s4</title>
<path fill="none" stroke="black" d="M1426,-272.145C1426,-259.533 1426,-242.705 1426,-228.474"/>
<polygon fill="black" stroke="black" points="1429.5,-228.21 1426,-218.21 1422.5,-228.21 1429.5,-228.21"/>
<text text-anchor="middle" x="1599" y="-241.4" font-family="Times Roman,serif" font-size="14.00">(LambdaExpr@0&#45;1&#45;1,[[0,0],[&lt;0,0&gt;,&lt;0,0&gt;]]) in s4</text>
</g>
<!-- e0x19001b0 -->
<g id="node48" class="node"><title>e0x19001b0</title>
<ellipse fill="none" stroke="black" cx="4022" cy="-291" rx="229.81" ry="18.3848"/>
<text text-anchor="middle" x="4022" y="-287.4" font-family="Times Roman,serif" font-size="14.00">(LambdaExpr@0&#45;1&#45;1,[[0,0],[&lt;0,0&gt;,&lt;0,0&gt;]])</text>
</g>
<!-- e0x19001b0&#45;&gt;s17 -->
<g id="edge36" class="edge"><title>e0x19001b0&#45;&gt;s17</title>
<path fill="none" stroke="black" d="M4022,-272.145C4022,-259.533 4022,-242.705 4022,-228.474"/>
<polygon fill="black" stroke="black" points="4025.5,-228.21 4022,-218.21 4018.5,-228.21 4025.5,-228.21"/>
<text text-anchor="middle" x="4199.5" y="-241.4" font-family="Times Roman,serif" font-size="14.00">(LambdaExpr@0&#45;1&#45;1,[[0,0],[&lt;0,0&gt;,&lt;0,0&gt;]]) in s17</text>
</g>
<!-- e0x1900290 -->
<g id="node50" class="node"><title>e0x1900290</title>
<ellipse fill="none" stroke="black" cx="6618" cy="-291" rx="229.81" ry="18.3848"/>
<text text-anchor="middle" x="6618" y="-287.4" font-family="Times Roman,serif" font-size="14.00">(LambdaExpr@0&#45;1&#45;1,[[0,0],[&lt;0,0&gt;,&lt;0,0&gt;]])</text>
</g>
<!-- e0x1900290&#45;&gt;s20 -->
<g id="edge38" class="edge"><title>e0x1900290&#45;&gt;s20</title>
<path fill="none" stroke="black" d="M6618,-272.145C6618,-259.533 6618,-242.705 6618,-228.474"/>
<polygon fill="black" stroke="black" points="6621.5,-228.21 6618,-218.21 6614.5,-228.21 6621.5,-228.21"/>
<text text-anchor="middle" x="6795.5" y="-241.4" font-family="Times Roman,serif" font-size="14.00">(LambdaExpr@0&#45;1&#45;1,[[0,0],[&lt;0,0&gt;,&lt;0,0&gt;]]) in s20</text>
</g>
<!-- e0x18fdfd0 -->
<g id="node52" class="node"><title>e0x18fdfd0</title>
<ellipse fill="none" stroke="black" cx="9578" cy="-291" rx="44.7575" ry="18.3848"/>
<text text-anchor="middle" x="9578" y="-287.4" font-family="Times Roman,serif" font-size="14.00">AP(14)</text>
</g>
<!-- e0x18fdfd0&#45;&gt;s11 -->
<g id="edge40" class="edge"><title>e0x18fdfd0&#45;&gt;s11</title>
<path fill="none" stroke="black" d="M9578,-272.145C9578,-259.533 9578,-242.705 9578,-228.474"/>
<polygon fill="black" stroke="black" points="9581.5,-228.21 9578,-218.21 9574.5,-228.21 9581.5,-228.21"/>
<text text-anchor="middle" x="9625" y="-241.4" font-family="Times Roman,serif" font-size="14.00">AP(14) in s11</text>
</g>
<!-- e0x18fecf0 -->
<g id="node54" class="node"><title>e0x18fecf0</title>
<ellipse fill="none" stroke="black" cx="9087" cy="-291" rx="44.7575" ry="18.3848"/>
<text text-anchor="middle" x="9087" y="-287.4" font-family="Times Roman,serif" font-size="14.00">AP(14)</text>
</g>
<!-- e0x18fecf0&#45;&gt;s9 -->
<g id="edge42" class="edge"><title>e0x18fecf0&#45;&gt;s9</title>
<path fill="none" stroke="black" d="M9087,-272.145C9087,-259.533 9087,-242.705 9087,-228.474"/>
<polygon fill="black" stroke="black" points="9090.5,-228.21 9087,-218.21 9083.5,-228.21 9090.5,-228.21"/>
<text text-anchor="middle" x="9129.5" y="-241.4" font-family="Times Roman,serif" font-size="14.00">AP(14) in s9</text>
</g>
<!-- e0x19009a0 -->
<g id="node56" class="node"><title>e0x19009a0</title>
<ellipse fill="none" stroke="black" cx="8596" cy="-291" rx="44.7575" ry="18.3848"/>
<text text-anchor="middle" x="8596" y="-287.4" font-family="Times Roman,serif" font-size="14.00">AP(14)</text>
</g>
<!-- e0x19009a0&#45;&gt;s13 -->
<g id="edge44" class="edge"><title>e0x19009a0&#45;&gt;s13</title>
<path fill="none" stroke="black" d="M8596,-272.145C8596,-259.533 8596,-242.705 8596,-228.474"/>
<polygon fill="black" stroke="black" points="8599.5,-228.21 8596,-218.21 8592.5,-228.21 8599.5,-228.21"/>
<text text-anchor="middle" x="8643" y="-241.4" font-family="Times Roman,serif" font-size="14.00">AP(14) in s13</text>
</g>
<!-- e0x18fa930 -->
<g id="node65" class="node"><title>e0x18fa930</title>
<ellipse fill="none" stroke="black" cx="10074" cy="-291" rx="44.7575" ry="18.3848"/>
<text text-anchor="middle" x="10074" y="-287.4" font-family="Times Roman,serif" font-size="14.00">AP(16)</text>
</g>
<!-- e0x18fa930&#45;&gt;s27 -->
<g id="edge60" class="edge"><title>e0x18fa930&#45;&gt;s27</title>
<path fill="none" stroke="black" d="M10074,-272.145C10074,-259.533 10074,-242.705 10074,-228.474"/>
<polygon fill="black" stroke="black" points="10077.5,-228.21 10074,-218.21 10070.5,-228.21 10077.5,-228.21"/>
<text text-anchor="middle" x="10121" y="-241.4" font-family="Times Roman,serif" font-size="14.00">AP(16) in s27</text>
</g>
<!-- e0x18f5b00 -->
<g id="node67" class="node"><title>e0x18f5b00</title>
<ellipse fill="none" stroke="black" cx="11066" cy="-291" rx="44.7575" ry="18.3848"/>
<text text-anchor="middle" x="11066" y="-287.4" font-family="Times Roman,serif" font-size="14.00">AP(16)</text>
</g>
<!-- e0x18f5b00&#45;&gt;s25 -->
<g id="edge62" class="edge"><title>e0x18f5b00&#45;&gt;s25</title>
<path fill="none" stroke="black" d="M11066,-272.145C11066,-259.533 11066,-242.705 11066,-228.474"/>
<polygon fill="black" stroke="black" points="11069.5,-228.21 11066,-218.21 11062.5,-228.21 11069.5,-228.21"/>
<text text-anchor="middle" x="11113" y="-241.4" font-family="Times Roman,serif" font-size="14.00">AP(16) in s25</text>
</g>
<!-- e0x18f5ce0 -->
<g id="node69" class="node"><title>e0x18f5ce0</title>
<ellipse fill="none" stroke="black" cx="10570" cy="-291" rx="44.7575" ry="18.3848"/>
<text text-anchor="middle" x="10570" y="-287.4" font-family="Times Roman,serif" font-size="14.00">AP(16)</text>
</g>
<!-- e0x18f5ce0&#45;&gt;s23 -->
<g id="edge64" class="edge"><title>e0x18f5ce0&#45;&gt;s23</title>
<path fill="none" stroke="black" d="M10570,-272.145C10570,-259.533 10570,-242.705 10570,-228.474"/>
<polygon fill="black" stroke="black" points="10573.5,-228.21 10570,-218.21 10566.5,-228.21 10573.5,-228.21"/>
<text text-anchor="middle" x="10617" y="-241.4" font-family="Times Roman,serif" font-size="14.00">AP(16) in s23</text>
</g>
</g>
</svg>
